<svg width="32" height="10" xmlns="http://www.w3.org/2000/svg">

 <g>
  <title>background</title>
  <rect fill="none" id="canvas_background" height="12" width="34" y="-1" x="-1"/>
 </g>
 <g>
  <title>Layer 1</title>
  <g stroke="null" id="svg_1" fill="none">
   <path stroke="null" id="svg_2" d="m28.007042,9.979171c-2.124688,0 -3.847121,-1.709646 -3.847121,-3.81856s1.722433,-3.81856 3.847121,-3.81856s3.847121,1.709646 3.847121,3.81856s-1.722433,3.81856 -3.847121,3.81856zm0,-1.578338c1.246467,0 2.256978,-1.003009 2.256978,-2.240222s-1.01051,-2.240222 -2.256978,-2.240222s-2.256978,1.003009 -2.256978,2.240222s1.01051,2.240222 2.256978,2.240222zm-8.053307,1.578338c-2.124688,0 -3.847121,-1.709646 -3.847121,-3.81856s1.722433,-3.81856 3.847121,-3.81856s3.847121,1.709646 3.847121,3.81856s-1.722433,3.81856 -3.847121,3.81856zm0,-1.578338c1.246467,0 2.256978,-1.003009 2.256978,-2.240222s-1.01051,-2.240222 -2.256978,-2.240222s-2.256978,1.003009 -2.256978,2.240222s1.01051,2.240222 2.256978,2.240222zm-4.206186,-2.291136c0,2.135084 -1.7231,3.869475 -3.847583,3.869475c-2.124432,0 -3.846659,-1.730826 -3.846659,-3.865911c0,-2.135135 1.564496,-3.77121 3.846659,-3.77121c0.843392,0 1.623331,0.177996 2.257337,0.6405l0.000103,-2.214256c0,-0.424318 0.372914,-0.768294 0.795072,-0.768294c0.422055,0 0.795072,0.344281 0.795072,0.768294l0,5.341402zm-3.847121,2.291136c1.246467,0 2.256978,-1.003009 2.256978,-2.240222s-1.01051,-2.240222 -2.256978,-2.240222s-2.256978,1.003009 -2.256978,2.240222s1.01051,2.240222 2.256978,2.240222z" fill="#8F8F8F"/>
   <path stroke="null" id="svg_3" d="m3.847121,9.979171c-2.124688,0 -3.847121,-1.709646 -3.847121,-3.81856s1.722433,-3.81856 3.847121,-3.81856s3.847121,1.709646 3.847121,3.81856s-1.722433,3.81856 -3.847121,3.81856zm0,-1.578338c1.246467,0 2.256978,-1.003009 2.256978,-2.240222s-1.01051,-2.240222 -2.256978,-2.240222s-2.256978,1.003009 -2.256978,2.240222s1.01051,2.240222 2.256978,2.240222z" fill="#875A7B"/>
  </g>
 </g>
</svg>